<?xml version="1.0" encoding="UTF-8" standalone="no"?>
<!DOCTYPE svg PUBLIC "-//W3C//DTD SVG 1.1//EN"
 "http://www.w3.org/Graphics/SVG/1.1/DTD/svg11.dtd">
<!-- Generated by graphviz version 2.43.0 (0)
 -->
<!-- Title: run_paths Pages: 1 -->
<svg width="1687pt" height="291pt"
 viewBox="0.00 0.00 1687.30 290.68" xmlns="http://www.w3.org/2000/svg" xmlns:xlink="http://www.w3.org/1999/xlink">
<g id="graph0" class="graph" transform="scale(1 1) rotate(0) translate(4 286.68)">
<title>run_paths</title>
<polygon fill="white" stroke="transparent" points="-4,4 -4,-286.68 1683.3,-286.68 1683.3,4 -4,4"/>
<g id="clust1" class="cluster">
<title>cluster_pre</title>
<polygon fill="white" stroke="#bbbbbb" stroke-dasharray="5,2" points="427.15,-77.68 427.15,-256.68 648.15,-256.68 648.15,-77.68 427.15,-77.68"/>
<text text-anchor="middle" x="537.65" y="-244.68" font-family="Arial" font-size="10.00">preprocessing (skipped when already provided)</text>
</g>
<g id="clust2" class="cluster">
<title>cluster_fold</title>
<polygon fill="white" stroke="#9ec59e" stroke-dasharray="5,2" points="912.3,-147.68 912.3,-218.68 1078.3,-218.68 1078.3,-147.68 912.3,-147.68"/>
<text text-anchor="middle" x="995.3" y="-206.68" font-family="Arial" font-size="10.00">per CV fold (config.folds)</text>
</g>
<g id="clust3" class="cluster">
<title>cluster_qc</title>
<polygon fill="white" stroke="#bbbbbb" stroke-dasharray="5,2" points="1302.3,-143.68 1302.3,-222.68 1671.3,-222.68 1671.3,-143.68 1302.3,-143.68"/>
<text text-anchor="middle" x="1486.8" y="-210.68" font-family="Arial" font-size="10.00">run&#45;level QC</text>
</g>
<!-- sheet -->
<g id="node1" class="node">
<title>sheet</title>
<polygon fill="#eeeeee" stroke="black" points="139,-174.68 136,-178.68 115,-178.68 112,-174.68 0,-174.68 0,-138.68 139,-138.68 139,-174.68"/>
<text text-anchor="middle" x="69.5" y="-159.88" font-family="Arial" font-size="11.00">sample sheet row</text>
<text text-anchor="middle" x="69.5" y="-147.88" font-family="Arial" font-size="11.00">signal · [peaks] · genome</text>
</g>
<!-- q_sig -->
<g id="node2" class="node">
<title>q_sig</title>
<polygon fill="#fff3cf" stroke="black" points="243,-243.68 176,-211.68 243,-179.68 310,-211.68 243,-243.68"/>
<text text-anchor="middle" x="243" y="-214.88" font-family="Arial" font-size="11.00">signal is</text>
<text text-anchor="middle" x="243" y="-202.88" font-family="Arial" font-size="11.00">a bigWig?</text>
</g>
<!-- sheet&#45;&gt;q_sig -->
<g id="edge1" class="edge">
<title>sheet&#45;&gt;q_sig</title>
<path fill="none" stroke="#555555" d="M126.66,-174.69C147.99,-181.53 172.11,-189.26 192.76,-195.89"/>
<polygon fill="#555555" stroke="#555555" points="191.7,-199.22 202.29,-198.94 193.83,-192.55 191.7,-199.22"/>
</g>
<!-- q_peaks -->
<g id="node3" class="node">
<title>q_peaks</title>
<polygon fill="#fff3cf" stroke="black" points="243,-148.68 177,-116.68 243,-84.68 309,-116.68 243,-148.68"/>
<text text-anchor="middle" x="243" y="-119.88" font-family="Arial" font-size="11.00">peaks</text>
<text text-anchor="middle" x="243" y="-107.88" font-family="Arial" font-size="11.00">provided?</text>
</g>
<!-- sheet&#45;&gt;q_peaks -->
<g id="edge5" class="edge">
<title>sheet&#45;&gt;q_peaks</title>
<path fill="none" stroke="#555555" d="M139.27,-140.64C155.47,-136.86 172.52,-132.88 187.97,-129.28"/>
<polygon fill="#555555" stroke="#555555" points="188.93,-132.65 197.87,-126.97 187.34,-125.83 188.93,-132.65"/>
</g>
<!-- bam2bw -->
<g id="node4" class="node">
<title>bam2bw</title>
<path fill="#dbe9f6" stroke="black" d="M555.65,-229.68C555.65,-229.68 519.65,-229.68 519.65,-229.68 513.65,-229.68 507.65,-223.68 507.65,-217.68 507.65,-217.68 507.65,-205.68 507.65,-205.68 507.65,-199.68 513.65,-193.68 519.65,-193.68 519.65,-193.68 555.65,-193.68 555.65,-193.68 561.65,-193.68 567.65,-199.68 567.65,-205.68 567.65,-205.68 567.65,-217.68 567.65,-217.68 567.65,-223.68 561.65,-229.68 555.65,-229.68"/>
<text text-anchor="middle" x="537.65" y="-208.88" font-family="Arial" font-size="11.00">bam2bw</text>
</g>
<!-- q_sig&#45;&gt;bam2bw -->
<g id="edge2" class="edge">
<title>q_sig&#45;&gt;bam2bw</title>
<path fill="none" stroke="#555555" d="M310.04,-211.68C367.56,-211.68 449.05,-211.68 497.02,-211.68"/>
<polygon fill="#555555" stroke="#555555" points="497.3,-215.18 507.3,-211.68 497.3,-208.18 497.3,-215.18"/>
<text text-anchor="middle" x="369" y="-214.48" font-family="Arial" font-size="9.00">no (BAM/fragments)</text>
</g>
<!-- bw -->
<g id="node7" class="node">
<title>bw</title>
<polygon fill="#f2f7fb" stroke="black" points="769.3,-231.68 691.3,-231.68 691.3,-195.68 775.3,-195.68 775.3,-225.68 769.3,-231.68"/>
<polyline fill="none" stroke="black" points="769.3,-231.68 769.3,-225.68 "/>
<polyline fill="none" stroke="black" points="775.3,-225.68 769.3,-225.68 "/>
<text text-anchor="middle" x="733.3" y="-210.88" font-family="Arial" font-size="11.00">&lt;sample&gt;.bw</text>
</g>
<!-- q_sig&#45;&gt;bw -->
<g id="edge4" class="edge">
<title>q_sig&#45;&gt;bw</title>
<path fill="none" stroke="#2c7fb8" stroke-dasharray="5,2" d="M281.4,-225.36C353.47,-249.74 516.14,-295.04 648.15,-260.68 665.98,-256.03 684.05,-246.69 698.84,-237.54"/>
<polygon fill="#2c7fb8" stroke="#2c7fb8" points="701.08,-240.26 707.6,-231.92 697.3,-234.37 701.08,-240.26"/>
<text text-anchor="middle" x="537.65" y="-275.48" font-family="Arial" font-size="9.00">yes: use as&#45;is</text>
</g>
<!-- macs3 -->
<g id="node5" class="node">
<title>macs3</title>
<path fill="#dbe9f6" stroke="black" d="M552.65,-175.68C552.65,-175.68 522.65,-175.68 522.65,-175.68 516.65,-175.68 510.65,-169.68 510.65,-163.68 510.65,-163.68 510.65,-151.68 510.65,-151.68 510.65,-145.68 516.65,-139.68 522.65,-139.68 522.65,-139.68 552.65,-139.68 552.65,-139.68 558.65,-139.68 564.65,-145.68 564.65,-151.68 564.65,-151.68 564.65,-163.68 564.65,-163.68 564.65,-169.68 558.65,-175.68 552.65,-175.68"/>
<text text-anchor="middle" x="537.65" y="-154.88" font-family="Arial" font-size="11.00">macs3</text>
</g>
<!-- q_peaks&#45;&gt;macs3 -->
<g id="edge8" class="edge">
<title>q_peaks&#45;&gt;macs3</title>
<path fill="none" stroke="#555555" d="M294.64,-123.77C353.41,-132 448.86,-145.38 500.57,-152.62"/>
<polygon fill="#555555" stroke="#555555" points="500.22,-156.11 510.61,-154.03 501.2,-149.17 500.22,-156.11"/>
<text text-anchor="middle" x="369" y="-141.48" font-family="Arial" font-size="9.00">no: call from BAM</text>
</g>
<!-- prep -->
<g id="node6" class="node">
<title>prep</title>
<path fill="#dbe9f6" stroke="black" d="M563.15,-121.68C563.15,-121.68 512.15,-121.68 512.15,-121.68 506.15,-121.68 500.15,-115.68 500.15,-109.68 500.15,-109.68 500.15,-97.68 500.15,-97.68 500.15,-91.68 506.15,-85.68 512.15,-85.68 512.15,-85.68 563.15,-85.68 563.15,-85.68 569.15,-85.68 575.15,-91.68 575.15,-97.68 575.15,-97.68 575.15,-109.68 575.15,-109.68 575.15,-115.68 569.15,-121.68 563.15,-121.68"/>
<text text-anchor="middle" x="537.65" y="-100.88" font-family="Arial" font-size="11.00">prep_peaks</text>
</g>
<!-- q_peaks&#45;&gt;prep -->
<g id="edge6" class="edge">
<title>q_peaks&#45;&gt;prep</title>
<path fill="none" stroke="#555555" d="M303.57,-114.03C358.61,-111.58 439.27,-108 489.82,-105.76"/>
<polygon fill="#555555" stroke="#555555" points="489.99,-109.25 499.83,-105.31 489.68,-102.26 489.99,-109.25"/>
<text text-anchor="middle" x="369" y="-115.48" font-family="Arial" font-size="9.00">yes</text>
</g>
<!-- err -->
<g id="node9" class="node">
<title>err</title>
<polygon fill="#f6d9d9" stroke="black" points="607.45,-19.65 607.45,-47.7 566.56,-67.53 508.74,-67.53 467.85,-47.7 467.85,-19.65 508.74,0.18 566.56,0.18 607.45,-19.65"/>
<text text-anchor="middle" x="537.65" y="-42.88" font-family="Arial" font-size="11.00">WorkflowError</text>
<text text-anchor="middle" x="537.65" y="-30.88" font-family="Arial" font-size="11.00">bigWig needs</text>
<text text-anchor="middle" x="537.65" y="-18.88" font-family="Arial" font-size="11.00">provided peaks</text>
</g>
<!-- q_peaks&#45;&gt;err -->
<g id="edge10" class="edge">
<title>q_peaks&#45;&gt;err</title>
<path fill="none" stroke="#c0392b" stroke-dasharray="5,2" d="M285.31,-104.96C331.9,-91.74 408.53,-70.01 464.95,-54.01"/>
<polygon fill="#c0392b" stroke="#c0392b" points="466.21,-57.29 474.88,-51.19 464.3,-50.56 466.21,-57.29"/>
<text text-anchor="middle" x="369" y="-94.48" font-family="Arial" font-size="9.00">no + bigWig</text>
</g>
<!-- bam2bw&#45;&gt;bw -->
<g id="edge3" class="edge">
<title>bam2bw&#45;&gt;bw</title>
<path fill="none" stroke="#555555" d="M568.06,-211.98C597.91,-212.29 644.74,-212.77 680.77,-213.14"/>
<polygon fill="#555555" stroke="#555555" points="681.06,-216.65 691.09,-213.25 681.13,-209.65 681.06,-216.65"/>
</g>
<!-- peaks -->
<g id="node8" class="node">
<title>peaks</title>
<polygon fill="#f2f7fb" stroke="black" points="776.3,-173.68 684.3,-173.68 684.3,-137.68 782.3,-137.68 782.3,-167.68 776.3,-173.68"/>
<polyline fill="none" stroke="black" points="776.3,-173.68 776.3,-167.68 "/>
<polyline fill="none" stroke="black" points="782.3,-167.68 776.3,-167.68 "/>
<text text-anchor="middle" x="733.3" y="-158.88" font-family="Arial" font-size="11.00">&lt;sample&gt; peaks</text>
<text text-anchor="middle" x="733.3" y="-146.88" font-family="Arial" font-size="11.00">.narrowPeak</text>
</g>
<!-- macs3&#45;&gt;peaks -->
<g id="edge9" class="edge">
<title>macs3&#45;&gt;peaks</title>
<path fill="none" stroke="#555555" d="M564.76,-157.41C592.6,-157.12 637.59,-156.65 673.93,-156.28"/>
<polygon fill="#555555" stroke="#555555" points="673.97,-159.78 683.94,-156.18 673.9,-152.78 673.97,-159.78"/>
</g>
<!-- prep&#45;&gt;peaks -->
<g id="edge7" class="edge">
<title>prep&#45;&gt;peaks</title>
<path fill="none" stroke="#555555" d="M575.26,-112.25C596.59,-117.36 623.96,-124.11 648.15,-130.68 656.59,-132.97 665.48,-135.49 674.18,-138.02"/>
<polygon fill="#555555" stroke="#555555" points="673.32,-141.42 683.91,-140.88 675.3,-134.7 673.32,-141.42"/>
</g>
<!-- fit -->
<g id="node11" class="node">
<title>fit</title>
<path fill="#d7efd7" stroke="black" d="M962.3,-191.68C962.3,-191.68 932.3,-191.68 932.3,-191.68 926.3,-191.68 920.3,-185.68 920.3,-179.68 920.3,-179.68 920.3,-167.68 920.3,-167.68 920.3,-161.68 926.3,-155.68 932.3,-155.68 932.3,-155.68 962.3,-155.68 962.3,-155.68 968.3,-155.68 974.3,-161.68 974.3,-167.68 974.3,-167.68 974.3,-179.68 974.3,-179.68 974.3,-185.68 968.3,-191.68 962.3,-191.68"/>
<text text-anchor="middle" x="947.3" y="-170.88" font-family="Arial" font-size="11.00">fit</text>
</g>
<!-- bw&#45;&gt;fit -->
<g id="edge12" class="edge">
<title>bw&#45;&gt;fit</title>
<path fill="none" stroke="#555555" d="M775.48,-206.87C809.55,-201.12 859.18,-192.42 902.3,-183.68 904.94,-183.14 907.67,-182.57 910.41,-181.98"/>
<polygon fill="#555555" stroke="#555555" points="911.27,-185.37 920.28,-179.8 909.76,-178.54 911.27,-185.37"/>
</g>
<!-- neg -->
<g id="node10" class="node">
<title>neg</title>
<path fill="#dbe9f6" stroke="black" d="M871.3,-147.68C871.3,-147.68 831.3,-147.68 831.3,-147.68 825.3,-147.68 819.3,-141.68 819.3,-135.68 819.3,-135.68 819.3,-123.68 819.3,-123.68 819.3,-117.68 825.3,-111.68 831.3,-111.68 831.3,-111.68 871.3,-111.68 871.3,-111.68 877.3,-111.68 883.3,-117.68 883.3,-123.68 883.3,-123.68 883.3,-135.68 883.3,-135.68 883.3,-141.68 877.3,-147.68 871.3,-147.68"/>
<text text-anchor="middle" x="851.3" y="-126.88" font-family="Arial" font-size="11.00">negatives</text>
</g>
<!-- peaks&#45;&gt;neg -->
<g id="edge11" class="edge">
<title>peaks&#45;&gt;neg</title>
<path fill="none" stroke="#555555" d="M782.48,-144.88C791.34,-142.89 800.52,-140.83 809.14,-138.9"/>
<polygon fill="#555555" stroke="#555555" points="809.98,-142.3 818.97,-136.7 808.45,-135.47 809.98,-142.3"/>
</g>
<!-- peaks&#45;&gt;fit -->
<g id="edge13" class="edge">
<title>peaks&#45;&gt;fit</title>
<path fill="none" stroke="#555555" d="M782.4,-159.76C821.04,-163.04 874.48,-167.58 909.7,-170.57"/>
<polygon fill="#555555" stroke="#555555" points="909.74,-174.09 920,-171.44 910.34,-167.11 909.74,-174.09"/>
</g>
<!-- neg&#45;&gt;fit -->
<g id="edge14" class="edge">
<title>neg&#45;&gt;fit</title>
<path fill="none" stroke="#555555" d="M883.34,-144.21C892.15,-148.33 901.81,-152.85 910.86,-157.09"/>
<polygon fill="#555555" stroke="#555555" points="909.47,-160.3 920.01,-161.37 912.43,-153.96 909.47,-160.3"/>
</g>
<!-- evaluate -->
<g id="node12" class="node">
<title>evaluate</title>
<path fill="#d7efd7" stroke="black" d="M1058.3,-191.68C1058.3,-191.68 1023.3,-191.68 1023.3,-191.68 1017.3,-191.68 1011.3,-185.68 1011.3,-179.68 1011.3,-179.68 1011.3,-167.68 1011.3,-167.68 1011.3,-161.68 1017.3,-155.68 1023.3,-155.68 1023.3,-155.68 1058.3,-155.68 1058.3,-155.68 1064.3,-155.68 1070.3,-161.68 1070.3,-167.68 1070.3,-167.68 1070.3,-179.68 1070.3,-179.68 1070.3,-185.68 1064.3,-191.68 1058.3,-191.68"/>
<text text-anchor="middle" x="1040.8" y="-170.88" font-family="Arial" font-size="11.00">evaluate</text>
</g>
<!-- neg&#45;&gt;evaluate -->
<g id="edge15" class="edge">
<title>neg&#45;&gt;evaluate</title>
<path fill="none" stroke="#555555" d="M883.31,-131.82C908.23,-134.07 943.96,-138.45 974.3,-146.68 983.36,-149.13 992.85,-152.53 1001.7,-156.08"/>
<polygon fill="#555555" stroke="#555555" points="1000.42,-159.34 1011,-159.96 1003.12,-152.88 1000.42,-159.34"/>
</g>
<!-- fit&#45;&gt;evaluate -->
<g id="edge16" class="edge">
<title>fit&#45;&gt;evaluate</title>
<path fill="none" stroke="#555555" d="M974.76,-173.68C982.96,-173.68 992.16,-173.68 1001.01,-173.68"/>
<polygon fill="#555555" stroke="#555555" points="1001.15,-177.18 1011.15,-173.68 1001.15,-170.18 1001.15,-177.18"/>
</g>
<!-- perf -->
<g id="node13" class="node">
<title>perf</title>
<polygon fill="#f2f7fb" stroke="black" points="1267.3,-195.68 1107.3,-195.68 1107.3,-151.68 1273.3,-151.68 1273.3,-189.68 1267.3,-195.68"/>
<polyline fill="none" stroke="black" points="1267.3,-195.68 1267.3,-189.68 "/>
<polyline fill="none" stroke="black" points="1273.3,-189.68 1267.3,-189.68 "/>
<text text-anchor="middle" x="1190.3" y="-182.88" font-family="Arial" font-size="11.00">performance.tsv</text>
<text text-anchor="middle" x="1190.3" y="-170.88" font-family="Arial" font-size="11.00">counts.tsv</text>
<text text-anchor="middle" x="1190.3" y="-158.88" font-family="Arial" font-size="11.00">epochs.svg · count_scatter.svg</text>
</g>
<!-- evaluate&#45;&gt;perf -->
<g id="edge17" class="edge">
<title>evaluate&#45;&gt;perf</title>
<path fill="none" stroke="#555555" d="M1070.59,-173.68C1078.55,-173.68 1087.65,-173.68 1097.18,-173.68"/>
<polygon fill="#555555" stroke="#555555" points="1097.24,-177.18 1107.24,-173.68 1097.24,-170.18 1097.24,-177.18"/>
</g>
<!-- gather -->
<g id="node14" class="node">
<title>gather</title>
<path fill="#dbe9f6" stroke="black" d="M1388.3,-191.68C1388.3,-191.68 1322.3,-191.68 1322.3,-191.68 1316.3,-191.68 1310.3,-185.68 1310.3,-179.68 1310.3,-179.68 1310.3,-167.68 1310.3,-167.68 1310.3,-161.68 1316.3,-155.68 1322.3,-155.68 1322.3,-155.68 1388.3,-155.68 1388.3,-155.68 1394.3,-155.68 1400.3,-161.68 1400.3,-167.68 1400.3,-167.68 1400.3,-179.68 1400.3,-179.68 1400.3,-185.68 1394.3,-191.68 1388.3,-191.68"/>
<text text-anchor="middle" x="1355.3" y="-170.88" font-family="Arial" font-size="11.00">gather_metrics</text>
</g>
<!-- perf&#45;&gt;gather -->
<g id="edge18" class="edge">
<title>perf&#45;&gt;gather</title>
<path fill="none" stroke="#555555" d="M1273.75,-173.68C1282.62,-173.68 1291.48,-173.68 1299.9,-173.68"/>
<polygon fill="#555555" stroke="#555555" points="1299.92,-177.18 1309.92,-173.68 1299.92,-170.18 1299.92,-177.18"/>
</g>
<!-- qc -->
<g id="node15" class="node">
<title>qc</title>
<polygon fill="#f2f7fb" stroke="black" points="1657.3,-195.68 1437.3,-195.68 1437.3,-151.68 1663.3,-151.68 1663.3,-189.68 1657.3,-195.68"/>
<polyline fill="none" stroke="black" points="1657.3,-195.68 1657.3,-189.68 "/>
<polyline fill="none" stroke="black" points="1663.3,-189.68 1657.3,-189.68 "/>
<text text-anchor="middle" x="1550.3" y="-182.88" font-family="Arial" font-size="11.00">metrics.tsv (+ outlier col)</text>
<text text-anchor="middle" x="1550.3" y="-170.88" font-family="Arial" font-size="11.00">performance_distribution.svg</text>
<text text-anchor="middle" x="1550.3" y="-158.88" font-family="Arial" font-size="11.00">count_pearson_vs_&lt;cov&gt;.svg · outliers.svg</text>
</g>
<!-- gather&#45;&gt;qc -->
<g id="edge19" class="edge">
<title>gather&#45;&gt;qc</title>
<path fill="none" stroke="#555555" d="M1400.57,-173.68C1408.75,-173.68 1417.64,-173.68 1426.87,-173.68"/>
<polygon fill="#555555" stroke="#555555" points="1427,-177.18 1437,-173.68 1427,-170.18 1427,-177.18"/>
</g>
</g>
</svg>
